<svg width="297" height="40" viewBox="0 0 297 40" fill="none" xmlns="http://www.w3.org/2000/svg">
<g clip-path="url(#clip0_4_47)">
<path d="M1.33753 40C0.943169 40 0.624398 39.8644 0.374639 39.5965C0.12488 39.3285 0 38.9945 0 38.6008V33.3747C0 32.8719 0.0985891 32.4585 0.295767 32.1343C0.492946 31.8102 0.660547 31.5786 0.805144 31.4331L18.0385 10.3135H1.82061C1.46241 10.3135 1.15021 10.1878 0.884016 9.93639C0.617825 9.68501 0.483087 9.36086 0.483087 8.96724V3.63194C0.483087 3.23832 0.617825 2.91417 0.884016 2.66278C1.15021 2.4114 1.46241 2.28571 1.82061 2.28571H28.8537C29.2448 2.28571 29.5669 2.4114 29.8166 2.66278C30.0664 2.91417 30.1913 3.23832 30.1913 3.63194V8.85809C30.1913 9.25501 30.1288 9.5957 30.004 9.88016C29.8791 10.1679 29.7082 10.4359 29.4946 10.6872L12.741 31.8598H29.442C29.8331 31.8598 30.165 31.9954 30.4312 32.2633C30.6974 32.5312 30.8321 32.8653 30.8321 33.2589V38.6471C30.8321 39.0077 30.6974 39.3219 30.4312 39.5898C30.165 39.8578 29.8331 39.9934 29.442 39.9934H1.33753V40Z" fill="white"/>
<path d="M38.292 40C37.8976 40 37.5789 39.8644 37.3291 39.5965C37.0793 39.3285 36.9545 39.0143 36.9545 38.6538V3.63194C36.9545 3.23832 37.0793 2.91417 37.3291 2.66278C37.5789 2.4114 37.9009 2.28571 38.292 2.28571H63.2909C63.682 2.28571 64.004 2.4114 64.2538 2.66278C64.5036 2.91417 64.6284 3.23832 64.6284 3.63194V8.69601C64.6284 9.09293 64.5036 9.41378 64.2538 9.66516C64.004 9.91655 63.682 10.0422 63.2909 10.0422H46.2153V17.3159H62.1144C62.5055 17.3159 62.8275 17.4515 63.0773 17.7194C63.3271 17.9873 63.4519 18.3214 63.4519 18.715V23.402C63.4519 23.7625 63.3271 24.0768 63.0773 24.3447C62.8275 24.6126 62.5055 24.7482 62.1144 24.7482H46.2153V32.2368H63.7181C64.1092 32.2368 64.4313 32.3625 64.681 32.6139C64.9308 32.8653 65.0557 33.1895 65.0557 33.5831V38.6471C65.0557 39.0077 64.9308 39.3219 64.681 39.5898C64.4313 39.8578 64.1092 39.9934 63.7181 39.9934H38.292V40Z" fill="white"/>
<path d="M69.9096 40C69.6237 40 69.364 39.8842 69.134 39.6494C68.9007 39.4145 68.7856 39.1565 68.7856 38.8688C68.7856 38.6901 68.8021 38.5281 68.8382 38.3825L81.4182 3.79401C81.5234 3.4004 81.7468 3.04978 82.0886 2.74217C82.4271 2.43786 82.9003 2.28571 83.5083 2.28571H91.4316C92.0395 2.28571 92.5095 2.43786 92.8512 2.74217C93.1897 3.04647 93.4132 3.39709 93.5216 3.79401L106.049 38.3825C106.121 38.5281 106.157 38.6868 106.157 38.8688C106.157 39.1565 106.042 39.4178 105.809 39.6494C105.576 39.8842 105.3 40 104.981 40H98.3985C97.8629 40 97.4619 39.8644 97.1925 39.5965C96.923 39.3285 96.7554 39.0838 96.6831 38.8688L94.5963 33.3747H80.3041L78.2699 38.8688C78.1976 39.0838 78.0366 39.3252 77.7868 39.5965C77.5371 39.8644 77.1098 40 76.5019 40H69.9161H69.9096ZM82.4895 25.6148H92.447L87.4683 11.3918L82.4895 25.6148Z" fill="white"/>
<path d="M116.158 40C115.763 40 115.445 39.8644 115.195 39.5965C114.945 39.3285 114.82 39.0143 114.82 38.6538V10.7435H105.293C104.899 10.7435 104.58 10.6079 104.33 10.3399C104.081 10.072 103.956 9.75778 103.956 9.39724V3.63194C103.956 3.23832 104.081 2.91417 104.33 2.66278C104.58 2.4114 104.902 2.28571 105.293 2.28571H134.091C134.482 2.28571 134.804 2.4114 135.054 2.66278C135.304 2.91417 135.429 3.23832 135.429 3.63194V9.39724C135.429 9.75778 135.304 10.072 135.054 10.3399C134.804 10.6079 134.482 10.7435 134.091 10.7435H124.564V38.6538C124.564 39.0143 124.439 39.3285 124.189 39.5965C123.94 39.8644 123.618 40 123.227 40H116.161H116.158Z" fill="white"/>
</g>
<path d="M166.002 40C163.913 40 162.038 39.6364 160.38 38.9091C158.721 38.1472 157.411 37.1082 156.449 35.7922C155.487 34.4416 154.957 32.9004 154.857 31.1688H159.534C159.667 32.5887 160.297 33.7489 161.425 34.6493C162.586 35.5498 164.095 36 165.953 36C167.677 36 169.037 35.6017 170.032 34.8052C171.028 34.0087 171.525 33.0043 171.525 31.7922C171.525 30.5455 170.994 29.6277 169.933 29.039C168.871 28.4156 167.23 27.8095 165.007 27.2208C162.984 26.6667 161.325 26.1126 160.032 25.5584C158.771 24.9697 157.677 24.1212 156.748 23.013C155.852 21.8701 155.404 20.381 155.404 18.5455C155.404 17.0909 155.819 15.7576 156.648 14.5455C157.478 13.3333 158.655 12.381 160.181 11.6883C161.707 10.961 163.448 10.5974 165.405 10.5974C168.424 10.5974 170.862 11.3939 172.719 12.987C174.577 14.5801 175.572 16.7619 175.704 19.5325H171.177C171.077 18.0433 170.497 16.8485 169.435 15.9481C168.407 15.0476 167.014 14.5974 165.256 14.5974C163.631 14.5974 162.337 14.961 161.375 15.6883C160.413 16.4156 159.932 17.368 159.932 18.5455C159.932 19.4805 160.214 20.2597 160.778 20.8831C161.375 21.4719 162.105 21.9567 162.967 22.3377C163.863 22.684 165.09 23.0823 166.649 23.5325C168.606 24.0866 170.198 24.6407 171.426 25.1948C172.653 25.7143 173.698 26.5108 174.56 27.5844C175.456 28.658 175.92 30.0606 175.953 31.7922C175.953 33.3507 175.539 34.7533 174.709 36C173.88 37.2468 172.703 38.2338 171.177 38.961C169.684 39.6537 167.959 40 166.002 40Z" fill="white"/>
<path d="M186.375 14.961V31.7403C186.375 33.1255 186.657 34.1126 187.221 34.7013C187.785 35.2554 188.763 35.5325 190.156 35.5325H193.49V39.5325H189.41C186.889 39.5325 184.998 38.9264 183.738 37.7143C182.478 36.5022 181.847 34.5108 181.847 31.7403V14.961H178.315V11.0649H181.847V3.8961H186.375V11.0649H193.49V14.961H186.375Z" fill="white"/>
<path d="M221.664 11.0649V39.5325H217.136V35.3247C216.274 36.7792 215.063 37.9221 213.504 38.7532C211.978 39.5498 210.287 39.9481 208.429 39.9481C206.306 39.9481 204.399 39.4978 202.707 38.5974C201.016 37.6623 199.672 36.2771 198.677 34.4416C197.715 32.6061 197.234 30.3723 197.234 27.7403V11.0649H201.712V27.1169C201.712 29.9221 202.392 32.0866 203.752 33.6104C205.112 35.0996 206.97 35.8442 209.325 35.8442C211.746 35.8442 213.654 35.0649 215.047 33.5065C216.44 31.9481 217.136 29.6797 217.136 26.7013V11.0649H221.664Z" fill="white"/>
<path d="M226.125 25.1948C226.125 22.2857 226.688 19.7403 227.816 17.5584C228.944 15.342 230.486 13.6277 232.443 12.4156C234.434 11.2035 236.656 10.5974 239.111 10.5974C241.233 10.5974 243.207 11.1169 245.031 12.1558C246.856 13.1602 248.249 14.4935 249.211 16.1558V1.09091H253.788V39.5325H249.211V34.1818C248.315 35.8788 246.988 37.2814 245.23 38.3896C243.472 39.4632 241.416 40 239.061 40C236.639 40 234.434 39.3766 232.443 38.1299C230.486 36.8831 228.944 35.1342 227.816 32.8831C226.688 30.632 226.125 28.0693 226.125 25.1948ZM249.211 25.2468C249.211 23.0996 248.796 21.2294 247.967 19.6364C247.138 18.0433 246.01 16.8312 244.584 16C243.191 15.1342 241.648 14.7013 239.956 14.7013C238.265 14.7013 236.722 15.1169 235.329 15.9481C233.936 16.7792 232.825 17.9913 231.996 19.5844C231.166 21.1775 230.752 23.0476 230.752 25.1948C230.752 27.3766 231.166 29.2814 231.996 30.9091C232.825 32.5022 233.936 33.7316 235.329 34.5974C236.722 35.4286 238.265 35.8442 239.956 35.8442C241.648 35.8442 243.191 35.4286 244.584 34.5974C246.01 33.7316 247.138 32.5022 247.967 30.9091C248.796 29.2814 249.211 27.3939 249.211 25.2468Z" fill="white"/>
<path d="M262.286 6.44156C261.423 6.44156 260.693 6.12987 260.096 5.50649C259.499 4.88312 259.201 4.12121 259.201 3.22078C259.201 2.32035 259.499 1.55844 260.096 0.935065C260.693 0.311688 261.423 0 262.286 0C263.115 0 263.811 0.311688 264.375 0.935065C264.972 1.55844 265.271 2.32035 265.271 3.22078C265.271 4.12121 264.972 4.88312 264.375 5.50649C263.811 6.12987 263.115 6.44156 262.286 6.44156ZM264.475 11.0649V39.5325H259.947V11.0649H264.475Z" fill="white"/>
<path d="M282.59 40C280.036 40 277.714 39.3939 275.625 38.1818C273.568 36.9697 271.943 35.2554 270.749 33.039C269.588 30.7879 269.007 28.1905 269.007 25.2468C269.007 22.3377 269.604 19.7749 270.798 17.5584C272.026 15.3074 273.684 13.5931 275.774 12.4156C277.864 11.2035 280.202 10.5974 282.789 10.5974C285.377 10.5974 287.715 11.2035 289.805 12.4156C291.894 13.5931 293.536 15.29 294.73 17.5065C295.958 19.7229 296.571 22.303 296.571 25.2468C296.571 28.1905 295.941 30.7879 294.681 33.039C293.453 35.2554 291.778 36.9697 289.655 38.1818C287.533 39.3939 285.178 40 282.59 40ZM282.59 35.8442C284.216 35.8442 285.741 35.4459 287.168 34.6493C288.594 33.8528 289.738 32.658 290.601 31.0649C291.496 29.4719 291.944 27.5325 291.944 25.2468C291.944 22.961 291.513 21.0216 290.651 19.4286C289.788 17.8355 288.66 16.658 287.267 15.8961C285.874 15.0996 284.365 14.7013 282.74 14.7013C281.081 14.7013 279.555 15.0996 278.162 15.8961C276.802 16.658 275.707 17.8355 274.878 19.4286C274.049 21.0216 273.634 22.961 273.634 25.2468C273.634 27.5671 274.032 29.5238 274.828 31.1169C275.658 32.71 276.752 33.9048 278.112 34.7013C279.472 35.4632 280.965 35.8442 282.59 35.8442Z" fill="white"/>
<defs>
<clipPath id="clip0_4_47">
<rect width="135.429" height="37.7143" fill="white" transform="translate(0 2.28571)"/>
</clipPath>
</defs>
</svg>
