<svg width="25" height="21" viewBox="0 0 25 21" fill="none" xmlns="http://www.w3.org/2000/svg">
<path d="M0.15625 10.4814C0.15625 10.231 0.261719 10.0068 0.459473 9.82227L9.26611 0.989258C9.5166 0.73877 9.74072 0.646484 9.97803 0.646484C10.479 0.646484 10.8481 1.01562 10.8481 1.50342C10.8481 1.75391 10.769 1.97803 10.6108 2.14941L6.66895 6.13086L2.77979 9.74316L5.83838 9.59814H23.7681C24.269 9.59814 24.6382 9.96729 24.6382 10.4814C24.6382 10.9956 24.269 11.3647 23.7681 11.3647H5.83838L2.7666 11.2197L6.66895 14.832L10.6108 18.8135C10.769 18.9717 10.8481 19.209 10.8481 19.4463C10.8481 19.9341 10.479 20.3032 9.97803 20.3032C9.74072 20.3032 9.52979 20.2241 9.33203 20.0396L0.459473 11.1406C0.261719 10.9561 0.15625 10.7319 0.15625 10.4814Z" fill="white"/>
</svg>
