<svg width="22" height="27" viewBox="0 0 22 27" fill="none" xmlns="http://www.w3.org/2000/svg">
<path d="M12.1987 26.9155C17.4458 26.9155 21.1504 23.4878 21.1504 17.3838V14.6943C21.1504 11.6753 19.8057 9.96143 17.4458 9.93506C17.1689 8.99902 16.3911 8.40576 15.3232 8.40576C14.9146 8.40576 14.519 8.48486 14.1235 8.6167C13.8335 7.61475 13.0029 6.98193 11.8823 6.98193C11.5659 6.98193 11.21 7.04785 10.8672 7.15332V2.60498C10.8672 1.04932 9.82568 0.0605469 8.44141 0.0605469C7.03076 0.0605469 6.00244 1.04932 6.00244 2.60498V14.1011C6.00244 14.167 5.96289 14.2197 5.89697 14.2197C5.84424 14.2197 5.80469 14.1934 5.77832 14.1274L4.64453 11.3325C4.22266 10.3174 3.47119 9.80322 2.60107 9.80322C1.40137 9.80322 0.34668 10.5811 0.359863 11.9258C0.359863 12.2817 0.438965 12.7432 0.570801 13.1519L2.95703 19.8755C4.5918 24.5029 7.74268 26.9155 12.1987 26.9155ZM12.2383 25.5181C8.53369 25.5181 5.72559 23.6328 4.23584 19.4272L1.84961 12.7036C1.77051 12.4927 1.73096 12.3081 1.73096 12.0576C1.73096 11.5435 2.12646 11.1084 2.71973 11.1084C3.19434 11.1084 3.51074 11.4116 3.73486 11.939L5.4751 15.9863C5.72559 16.5532 6.08154 16.751 6.5166 16.751C7.01758 16.751 7.38672 16.3818 7.38672 15.8149V2.52588C7.38672 1.85352 7.80859 1.39209 8.44141 1.39209C9.07422 1.39209 9.48291 1.85352 9.48291 2.52588V11.939C9.48291 12.3345 9.77295 12.6377 10.1553 12.6377C10.5376 12.6377 10.8145 12.3345 10.8145 11.939V8.51123C11.0913 8.39258 11.4341 8.31348 11.7109 8.31348C12.4624 8.31348 12.9106 8.80127 12.9106 9.61865V12.4399C12.9106 12.8882 13.2271 13.1387 13.583 13.1387C13.9258 13.1387 14.2422 12.8882 14.2422 12.4399V9.92188C14.519 9.81641 14.8618 9.7373 15.1519 9.7373C15.9033 9.7373 16.3384 10.2251 16.3384 11.0293V12.9409C16.3384 13.3892 16.6548 13.6396 17.0107 13.6396C17.3535 13.6396 17.6699 13.3892 17.6699 12.9409V11.3325C19.0278 11.3325 19.7661 12.5981 19.7661 14.8789V17.252C19.7661 22.6177 16.7866 25.5181 12.2383 25.5181Z" fill="white"/>
</svg>
